# xmcd CD database file
#
# Track frame offsets:
#	150
#	11665
#	26297
#	39504
#	52347
#	67508
#	82690
#	101192
#	113243
#	125038
#	139938
#	154915
#	168628
#	184100
#	197307
#	209141
#	220450
#	232591
#	245774
#	260388
#	273674
#	288625
#	302353
#	317113
#	326385
#
# Disc length: 4623 seconds
#
# Revision: 2
# Processed by: cddbd v1.5.1PL2 Copyright (c) Steve Scherf et al.
# Submitted via: CDex 1.50beta9
#
DISCID=6c120d19
DTITLE=Fitzgerald, Ella - All My Life [CD1]
DYEAR=2005
DGENRE=Jazz
TTITLE0=I'll Chase The Blue Away
TTITLE1=All My Lifes'n
TTITLE2=Mr Paganini You'll Have To Swing It
TTITLE3=Organ Grinder's Swing
TTITLE4=You Showed Me The Way
TTITLE5=I Got A Guy
TTITLE6=Hallelujah!
TTITLE7=A Ticket A Tasket
TTITLE8=I Found My Yellow Basket
TTITLE9=Undecided
TTITLE10=Stairway To The Star
TTITLE11=My Man
TTITLE12=You Don't Know What Love Is
TTITLE13=Cow Cow Boogie
TTITLE14=It's Only A Papermoon
TTITLE15=Flying Home
TTITLE16=Stone Cold Dead In The Market
TTITLE17=You Won't Be Satisfied
TTITLE18=The Frim Fram Sauce
TTITLE19=I'm Just A Lucky So And So
TTITLE20=Sentimental Journey
TTITLE21=That's My Desire
TTITLE22=Oh! Lady Be Good
TTITLE23=Almost Like Being In Love
TTITLE24=Lover Man
EXTD=YEAR: 2005
EXTT0=
EXTT1=
EXTT2=
EXTT3=
EXTT4=
EXTT5=
EXTT6=
EXTT7=
EXTT8=
EXTT9=
EXTT10=
EXTT11=
EXTT12=
EXTT13=
EXTT14=
EXTT15=
EXTT16=
EXTT17=
EXTT18=
EXTT19=
EXTT20=
EXTT21=
EXTT22=
EXTT23=
EXTT24=
PLAYORDER=
